<svg xmlns="http://www.w3.org/2000/svg" viewBox="0 0 16 16"><defs><style>.icon-canvas-transparent,.icon-vs-out{fill:#f6f6f6;}.icon-canvas-transparent{opacity:0;}.icon-vs-bg{fill:#424242;}.icon-vs-action-green{fill:#388a34;}</style></defs><title>AddPackage_16x</title><g id="canvas"><path class="icon-canvas-transparent" d="M16,0V16H0V0Z"/></g><g id="outline"><path class="icon-vs-out" d="M16,5V16H3V8H2V6H0V2H2V0H6V2H8v.291A2.831,2.831,0,0,1,9.5,3.469a2.652,2.652,0,0,1,2.228-1.285,2.777,2.777,0,0,1,.469.04A2.731,2.731,0,0,1,14,3.35a2.7,2.7,0,0,1,.5,1.65Z"/></g><g id="iconBg"><path class="icon-vs-bg" d="M13.075,6a1.62,1.62,0,0,0,.4-.791,1.724,1.724,0,0,0-1.433-1.982,1.852,1.852,0,0,0-1.977,1.281c-.07.135-.271.577-.483,1.044L9.5,5.717l-.089-.2c-.208-.455-.4-.88-.469-1.013A2.56,2.56,0,0,0,8,3.387V4.645c.044.074.088.154.135.248.066.13.252.547.45.993L8.637,6H6V7H9v7H5V8H4v7H15V6Zm-2.653-.083c.2-.458.4-.89.464-1.024.42-.836.7-.863,1-.81a.832.832,0,0,1,.681.96.977.977,0,0,1-.472.622,6.722,6.722,0,0,1-.59.335H10.385ZM14,14H10V7h4Z"/></g><g id="colorAction"><path class="icon-vs-action-green" d="M7,3V5H5V7H3V5H1V3H3V1H5V3Z"/></g></svg>