<svg xmlns="http://www.w3.org/2000/svg" viewBox="0 0 16 16"><style>.icon-canvas-transparent{opacity:0;fill:#f6f6f6}.icon-vs-out{fill:#f6f6f6}.icon-vs-bg{fill:#424242}.icon-vs-fg{fill:#f0eff1}</style><path class="icon-canvas-transparent" d="M16 16H0V0h16v16z" id="canvas"/><path class="icon-vs-out" d="M16 12l-4.319.003-.339 1.363-1.59-1.173a1.015 1.015 0 0 0-1.385.171 1.018 1.018 0 0 0-.002 1.284l1.254 1.538-1.903.565A6.025 6.025 0 0 1 6.001 16a6.03 6.03 0 0 1-3.794-1.351 5.966 5.966 0 0 1-2.176-4.045 5.96 5.96 0 0 1 1.322-4.398c.199-.243.418-.463.647-.669V0h14v12z" id="outline"/><path class="icon-vs-fg" d="M8.676 6.723a4.194 4.194 0 0 0-3.101-.932 4.203 4.203 0 0 0-2.852 1.533 4.206 4.206 0 0 0-.931 3.102 4.204 4.204 0 0 0 1.534 2.851 4.225 4.225 0 0 0 3.379.894 2.705 2.705 0 0 1 .322-2.908 2.682 2.682 0 0 1 3.169-.754 4.248 4.248 0 0 0-1.52-3.786zm-4.954 3.321c-.245.34-.772.031-.614-.31-.239-.181-.381-.552-.243-.815.188-.358.77-.256 1.014-.014.349.345.075.817-.157 1.139zm1.355 2.094c-.374.029-.8-.195-.867-.549-.092-.482.557-.864.983-.842.608.031.703.687.724 1.172.023.512-.731.66-.84.219zm2.137-3.959c-.446.485-1.092.14-1.536-.155-.469-.312-.08-1.033.385-.839.232-.329.722-.538 1.082-.366.489.235.381 1.02.069 1.36zM14 2v1H4V2h10zM6.002 4H14v6h-2.017c-.003-1.776-.783-3.502-2.188-4.648A5.936 5.936 0 0 0 6.002 4zM4 4h2.002c-.2 0-.401.01-.605.03-.484.049-.95.161-1.397.318V4z" id="iconFg"/><g id="iconBg"><path class="icon-vs-bg" d="M3 1v3.808a5.956 5.956 0 0 1 1-.46V4h10v6h-2v1.004s3-.059 3-.004V1H3zm11 2H4V2h10v1zM6.001 15a5.002 5.002 0 0 1-3.162-1.127 4.968 4.968 0 0 1-1.813-3.37 4.968 4.968 0 0 1 1.102-3.665 4.966 4.966 0 0 1 3.37-1.813 4.982 4.982 0 0 1 3.665 1.102 5.02 5.02 0 0 1 1.686 5.08l-.139.558-.462-.341a1.917 1.917 0 0 0-2.624.326 1.928 1.928 0 0 0-.003 2.429l.365.448-.554.164A4.987 4.987 0 0 1 6.001 15zm.008-9.231a4.2 4.2 0 0 0-3.286 1.556 4.202 4.202 0 0 0-.931 3.101 4.2 4.2 0 0 0 1.534 2.851 4.225 4.225 0 0 0 3.379.894 2.705 2.705 0 0 1 .322-2.908 2.682 2.682 0 0 1 3.169-.754 4.249 4.249 0 0 0-1.52-3.787 4.198 4.198 0 0 0-2.667-.953zm1.205 2.41c-.446.485-1.092.14-1.536-.155-.469-.312-.08-1.033.385-.839.232-.329.722-.538 1.082-.366.489.235.381 1.02.069 1.36zm-3.334.726c.349.345.074.817-.157 1.139-.245.34-.772.031-.614-.31-.24-.181-.382-.552-.244-.815.189-.358.77-.256 1.015-.014zm1.314 1.842c.608.031.703.687.724 1.172.022.512-.732.66-.841.219-.374.029-.8-.195-.867-.549-.092-.481.557-.864.984-.842z"/></g></svg>