<svg xmlns="http://www.w3.org/2000/svg" viewBox="0 0 16 16"><style>.icon-canvas-transparent{opacity:0;fill:#f6f6f6}.icon-vs-out{fill:#f6f6f6}.icon-vs-bg{fill:#424242}.icon-vs-fg{fill:#f0eff1}</style><path class="icon-canvas-transparent" d="M0 0h16v16H0z" id="canvas"/><path class="icon-vs-out" d="M8.004 16.007a8.035 8.035 0 0 1-5.06-1.802A7.954 7.954 0 0 1 .042 8.81a7.942 7.942 0 0 1 1.764-5.866A7.95 7.95 0 0 1 8.008 0c1.863 0 3.612.624 5.058 1.804a8.036 8.036 0 0 1 2.7 8.131l-.637 2.559-2.121-1.565a1.35 1.35 0 0 0-1.849 1.94l1.673 2.051-2.538.754a8.025 8.025 0 0 1-2.29.333z" id="outline"/><path class="icon-vs-fg" d="M11.752 3.413a5.878 5.878 0 0 0-4.343-1.305c-1.575.159-2.994.922-3.995 2.148S1.95 7.025 2.109 8.6a5.887 5.887 0 0 0 2.148 3.994 5.919 5.919 0 0 0 4.733 1.252 3.787 3.787 0 0 1 .451-4.073 3.756 3.756 0 0 1 4.439-1.056 5.948 5.948 0 0 0-2.128-5.304zm-6.787 4.65c-.327.453-1.029.041-.819-.414-.319-.242-.508-.737-.324-1.088.251-.477 1.027-.341 1.353-.019.465.461.099 1.09-.21 1.521zm1.807 2.792c-.499.039-1.067-.26-1.156-.732-.123-.642.743-1.152 1.312-1.123.811.042.938.917.966 1.564.03.682-.977.879-1.122.291zm2.85-5.281c-.595.646-1.457.187-2.049-.206-.625-.416-.107-1.379.513-1.12.309-.439.964-.718 1.444-.488.653.313.509 1.361.092 1.814z" id="iconFg"/><g id="iconBg"><path class="icon-vs-bg" d="M8.005 15.007a7 7 0 0 1-4.429-1.578 6.954 6.954 0 0 1-2.539-4.72A6.958 6.958 0 0 1 2.58 3.576 6.955 6.955 0 0 1 7.3 1.035a6.978 6.978 0 0 1 5.133 1.543 7.03 7.03 0 0 1 2.361 7.116l-.194.782-.648-.478a2.687 2.687 0 0 0-3.676.456 2.7 2.7 0 0 0-.004 3.403l.512.627-.776.23a6.982 6.982 0 0 1-2.003.293zm.011-12.93c-.201 0-.404.01-.607.031-1.575.159-2.994.922-3.995 2.148S1.95 7.025 2.109 8.6a5.887 5.887 0 0 0 2.148 3.994 5.919 5.919 0 0 0 4.733 1.252 3.787 3.787 0 0 1 .451-4.073 3.756 3.756 0 0 1 4.439-1.056 5.949 5.949 0 0 0-2.129-5.304 5.875 5.875 0 0 0-3.735-1.336zM9.53 3.76c-.48-.23-1.135.049-1.444.488-.62-.259-1.138.704-.513 1.12.592.393 1.454.852 2.049.206.417-.453.561-1.501-.092-1.814zM3.822 6.561c-.184.351.005.846.324 1.088-.21.455.493.867.819.413.309-.43.675-1.059.21-1.52-.326-.322-1.102-.458-1.353.019zm1.794 3.562c.09.472.657.771 1.157.732.145.588 1.151.391 1.122-.292-.03-.646-.157-1.521-.967-1.563-.569-.029-1.435.481-1.312 1.123z"/></g></svg>