<svg xmlns="http://www.w3.org/2000/svg" viewBox="0 0 16 16"><style>.icon-canvas-transparent{opacity:0;fill:#f6f6f6}.icon-vs-out{fill:#f6f6f6}.icon-vs-bg{fill:#424242}.icon-vs-blue{fill:#1ba1e2}.icon-white{fill:#ffffff}.st0{fill:#f6f6f6}.st1{fill:#ffffff}</style><path class="icon-canvas-transparent" d="M16 16H0V0h16v16z" id="canvas"/><path class="icon-vs-out" d="M16 0v12h-.051c-.252 2.244-2.139 4-4.449 4a4.461 4.461 0 0 1-2.344-.677l-1.44.428A6.025 6.025 0 0 1 6.001 16a6.03 6.03 0 0 1-3.794-1.351 5.966 5.966 0 0 1-2.176-4.045 5.96 5.96 0 0 1 1.322-4.398c.199-.243.418-.463.647-.669V0h14z" id="outline"/><path class="st0" d="M14 3H4V2h10v1zM6.464 13.443c.045.251.125.497.24.729a4.228 4.228 0 0 1-3.379-.894 4.206 4.206 0 0 1-1.534-2.851A4.243 4.243 0 0 1 4 6.27a4.205 4.205 0 0 1 2.009-.501 4.194 4.194 0 0 1 3.42 1.76 4.492 4.492 0 0 0-2.175 2.542l-.024.078a4.427 4.427 0 0 0-.207 1.12l-.002.004a2.682 2.682 0 0 0-.584 1.411v.003c-.026.252-.017.506.027.756zm-.787-5.419c.444.295 1.09.639 1.536.155.313-.34.42-1.125-.069-1.36-.36-.173-.851.036-1.082.366-.465-.194-.853.527-.385.839zm-1.797.881c-.245-.242-.826-.344-1.015.014-.138.263.004.634.243.816-.157.341.369.65.614.31.232-.323.506-.795.158-1.14zm2.038 3.014c-.021-.485-.116-1.141-.724-1.172-.426-.022-1.075.361-.983.842.067.354.493.578.867.549.108.441.862.293.84-.219zm3.245-5.793c.39.318.72.692.991 1.102l.012-.003c.196-.061.393-.116.599-.151.238-.045.483-.074.735-.074.279 0 .549.033.814.082.082.015.16.036.24.055.187.045.369.102.547.17.078.03.156.057.232.091.231.105.457.223.667.364V4H4v1.44c.473-.207.97-.362 1.498-.415a4.985 4.985 0 0 1 3.665 1.101z" id="iconFg"/><path class="icon-vs-bg" d="M5.918 11.919c.022.512-.732.66-.841.219-.374.029-.8-.194-.867-.549-.092-.482.557-.864.983-.842.608.031.704.687.725 1.172zm1.296-3.74c.313-.34.42-1.125-.069-1.36-.36-.173-.851.036-1.082.366-.466-.194-.854.527-.386.839.444.295 1.091.639 1.537.155zm.003 4.63A4.437 4.437 0 0 1 7 11.5c0-.079.019-.153.023-.231a2.702 2.702 0 0 0-.319 2.902 4.228 4.228 0 0 1-3.379-.894 4.206 4.206 0 0 1-1.534-2.851 4.21 4.21 0 0 1 .932-3.102 4.206 4.206 0 0 1 3.286-1.556 4.194 4.194 0 0 1 3.421 1.76c.231-.121.472-.22.724-.3a4.953 4.953 0 0 0-4.656-2.203 4.97 4.97 0 0 0-3.371 1.813 4.968 4.968 0 0 0-1.102 3.665 4.966 4.966 0 0 0 1.813 3.37 5.002 5.002 0 0 0 4.594.919l.554-.164-.366-.449a1.9 1.9 0 0 1-.403-1.37zM4 4.349a5.956 5.956 0 0 0-1 .46V1h12v7.706a4.531 4.531 0 0 0-1-.945V4H4v.349zM4 3h10V2H4v1zm-.278 7.044c.232-.322.506-.794.158-1.139-.245-.242-.826-.344-1.015.014-.138.263.004.634.243.816-.157.341.369.65.614.309z" id="iconBg"/><path class="icon-vs-blue" d="M15 11.5a3.5 3.5 0 1 0-7 0c0 1.934 1.566 3.5 3.5 3.5s3.5-1.566 3.5-3.5zm-4-1L9.5 12v-1.5L11 9h1l1.5 1.5V12L12 10.5V14h-1v-3.5z" id="notificationBg"/><g id="notificationFg"><path class="st1" d="M12 14v-3.5l1.5 1.5v-1.5L12 9h-1l-1.5 1.5V12l1.5-1.5V14z"/><path class="icon-white" d="M11 14v-3.5L9.5 12v-1.5L11 9h1l1.5 1.5V12L12 10.5V14h-1z"/></g></svg>