<svg xmlns="http://www.w3.org/2000/svg" viewBox="0 0 16 16"><style>.icon-canvas-transparent{opacity:0;fill:#f6f6f6}.icon-vs-out{fill:#f6f6f6}.icon-vs-bg{fill:#424242}.icon-vs-fg{fill:#f0eff1}.icon-vs-yellow{fill:#ffcc00}</style><path class="icon-canvas-transparent" d="M16 16H0V0h16v16z" id="canvas"/><path class="icon-vs-out" d="M16.001 13.985L15.033 16H8.031l-.154-.297-.161.048A6.025 6.025 0 0 1 6.001 16a6.03 6.03 0 0 1-3.794-1.351 5.966 5.966 0 0 1-2.176-4.045 5.96 5.96 0 0 1 1.322-4.398c.199-.243.418-.463.647-.669V0h14v12h-.982l.983 1.985z" id="outline"/><path class="icon-vs-fg" d="M7.027 11.263a2.671 2.671 0 0 1 1.842-.972l.996-1.985a4.195 4.195 0 0 0-4.29-2.515 4.203 4.203 0 0 0-2.852 1.533 4.206 4.206 0 0 0-.931 3.102 4.204 4.204 0 0 0 1.534 2.851 4.225 4.225 0 0 0 3.379.894 2.701 2.701 0 0 1 .322-2.908zm-.965-4.078c.232-.329.722-.538 1.082-.366.49.235.382 1.02.069 1.36-.446.485-1.092.14-1.536-.155-.468-.312-.08-1.033.385-.839zm-2.34 2.859c-.245.34-.772.031-.614-.31-.239-.181-.381-.552-.243-.815.188-.358.77-.256 1.014-.014.349.345.075.817-.157 1.139zm1.355 2.094c-.374.029-.8-.195-.867-.549-.092-.482.557-.864.983-.842.608.031.703.687.724 1.172.023.512-.731.66-.84.219zM14 3H4V2h10v1zM4 4h2.002c-.2 0-.401.01-.605.03-.484.049-.95.161-1.397.318V4zm5.795 1.352A5.936 5.936 0 0 0 6.002 4H14v5.947L12.54 7h-1.36a5.877 5.877 0 0 0-1.385-1.648z" id="iconFg"/><path class="icon-vs-bg" d="M7.214 8.179c-.446.485-1.092.14-1.536-.155-.469-.312-.08-1.033.385-.839.232-.329.722-.538 1.082-.366.489.235.381 1.02.069 1.36zm-4.349.74c-.138.263.004.634.243.816-.157.341.369.65.614.31.232-.323.506-.795.158-1.14-.245-.242-.826-.344-1.015.014zm1.345 2.67c.067.354.493.578.867.549.109.441.863.293.841-.219-.021-.485-.117-1.141-.724-1.172-.427-.022-1.076.361-.984.842zM14 4H4v.349a5.956 5.956 0 0 0-1 .46V1h12v10c0-.014-.197-.021-.489-.023L14 9.947V4zm0-1V2H4v1h10zM7 14.016l.275-.548a1.915 1.915 0 0 1 .348-1.717c.219-.268.498-.454.8-.569l.446-.889a2.667 2.667 0 0 0-1.842.972 2.703 2.703 0 0 0-.322 2.908 4.228 4.228 0 0 1-3.379-.894 4.206 4.206 0 0 1-1.534-2.851 4.208 4.208 0 0 1 .931-3.104 4.206 4.206 0 0 1 3.286-1.556 4.194 4.194 0 0 1 3.857 2.538l.424-.845a4.937 4.937 0 0 0-1.127-1.335 4.985 4.985 0 0 0-3.665-1.101 4.97 4.97 0 0 0-3.371 1.813 4.968 4.968 0 0 0-1.102 3.665 4.966 4.966 0 0 0 1.813 3.37 5.002 5.002 0 0 0 4.568.924L7 14.016z" id="iconBg"/><path class="icon-vs-yellow" d="M11.92 8h-.781l-3.016 6.008.516.992h5.766l.484-1.008L11.92 8zm.08 6h-1v-1h1v1zm0-2h-1v-2h1v2z" id="notificationBg"/><g id="notificationFg"><path class="icon-black" d="M12 14h-1v-1h1v1zm0-2h-1v-2h1v2z"/></g></svg>