<svg xmlns="http://www.w3.org/2000/svg" viewBox="0 0 16 16"><style>.icon-canvas-transparent{opacity:0;fill:#f6f6f6}.icon-vs-out{fill:#f6f6f6}.icon-vs-bg{fill:#424242}.icon-vs-fg{fill:#f0eff1}.icon-vs-green{fill:#339933}.icon-white{fill:#ffffff}</style><path class="icon-canvas-transparent" d="M16 16H0V0h16v16z" id="canvas"/><path class="icon-vs-out" d="M16 0v12h-.051c-.252 2.244-2.139 4-4.449 4a4.458 4.458 0 0 1-2.344-.677l-1.44.428A6.025 6.025 0 0 1 6.001 16a6.03 6.03 0 0 1-3.794-1.351 5.966 5.966 0 0 1-2.176-4.045 5.96 5.96 0 0 1 1.322-4.398c.199-.243.418-.463.647-.669V0h14z" id="outline"/><path class="icon-vs-fg" d="M8.676 6.723a4.194 4.194 0 0 0-3.101-.932 4.203 4.203 0 0 0-2.852 1.533 4.206 4.206 0 0 0-.931 3.102 4.204 4.204 0 0 0 1.534 2.851 4.225 4.225 0 0 0 3.379.894 2.702 2.702 0 0 1 .319-2.902A4.479 4.479 0 0 1 9.43 7.528a4.16 4.16 0 0 0-.754-.805zm-4.954 3.321c-.245.34-.772.031-.614-.31-.239-.181-.381-.552-.243-.815.188-.358.77-.256 1.014-.014.349.345.075.817-.157 1.139zm1.355 2.094c-.374.029-.8-.195-.867-.549-.092-.482.557-.864.983-.842.608.031.703.687.724 1.172.023.512-.731.66-.84.219zm2.137-3.959c-.446.485-1.092.14-1.536-.155-.469-.312-.08-1.033.385-.839.232-.329.722-.538 1.082-.366.489.235.381 1.02.069 1.36zM14 2v1H4V2h10zM6.003 4H14v3.785A4.447 4.447 0 0 0 11.5 7c-.096 0-.188.017-.282.023l-.23-.347A5.94 5.94 0 0 0 6.003 4zM4 4h2.003c-.2 0-.402.01-.606.03-.484.049-.95.161-1.397.318V4z" id="iconFg"/><path class="icon-vs-bg" d="M7.214 8.179c-.446.485-1.092.14-1.536-.155-.469-.312-.08-1.033.385-.839.232-.329.722-.538 1.082-.366.489.235.381 1.02.069 1.36zm-4.349.74c-.138.263.004.634.243.816-.157.341.369.65.614.31.232-.323.506-.795.158-1.14-.245-.242-.826-.344-1.015.014zm1.345 2.67c.067.354.493.578.867.549.109.441.863.293.841-.219-.021-.485-.117-1.141-.724-1.172-.427-.022-1.076.361-.984.842zM14 4H4v.349a5.956 5.956 0 0 0-1 .46V1h12v7.718c-.24-.316-.431-.495-.431-.495l-.031-.028a4.603 4.603 0 0 0-.538-.41V4zm0-1V2H4v1h10zm-6.783 9.81A4.45 4.45 0 0 1 7 11.5c0-.079.019-.153.023-.231a2.702 2.702 0 0 0-.319 2.902 4.228 4.228 0 0 1-3.379-.894 4.206 4.206 0 0 1-1.534-2.851 4.21 4.21 0 0 1 .932-3.102 4.206 4.206 0 0 1 3.286-1.556 4.194 4.194 0 0 1 3.421 1.76c.231-.121.472-.22.724-.3a4.953 4.953 0 0 0-4.656-2.203 4.97 4.97 0 0 0-3.371 1.813 4.968 4.968 0 0 0-1.102 3.665 4.966 4.966 0 0 0 1.813 3.37 5.002 5.002 0 0 0 4.594.919l.554-.164-.366-.449a1.898 1.898 0 0 1-.403-1.369z" id="iconBg"/><path class="icon-vs-green" d="M15 11.5A3.5 3.5 0 1 1 11.5 8a3.47 3.47 0 0 1 2.361.932L10.5 12.293l-1.146-1.146-.707.707 1.854 1.854 3.994-3.994c-.175-.292.505.767.505 1.786z" id="notificationBg"/><g id="notificationFg"><path class="icon-white" d="M8.663 11.866l.696-.712 1.126 1.11 3.346-3.33s.563.613.629.762l-3.976 3.976-1.821-1.806z"/></g></svg>