<svg xmlns="http://www.w3.org/2000/svg" viewBox="0 0 16 16"><style>.icon-canvas-transparent{opacity:0;fill:#f6f6f6}.icon-vs-out{fill:#f6f6f6}.icon-vs-bg{fill:#424242}.icon-vs-fg{fill:#f0eff1}.icon-vs-action-orange{fill:#c27d1a}</style><path class="icon-canvas-transparent" d="M16 16H0V0h16v16z" id="canvas"/><path class="icon-vs-out" d="M15.765 9.935l-.637 2.559-2.121-1.565a1.348 1.348 0 0 0-1.847.227 1.358 1.358 0 0 0-.003 1.713l1.673 2.051-2.538.754a8.006 8.006 0 0 1-7.348-1.469A7.986 7.986 0 0 1 .261 6H0V3h.878l-.621-.621L2.379.257 3 .878V0h3v.263c.391-.1.79-.181 1.199-.223A8.19 8.19 0 0 1 8.008 0c1.863 0 3.612.624 5.058 1.804a8.035 8.035 0 0 1 2.699 8.131z" id="outline"/><path class="icon-vs-fg" d="M11.752 3.413A5.854 5.854 0 0 0 8.48 2.117l.262.262L8.121 3H9v.705c.183-.026.366-.023.53.055.653.313.509 1.361.092 1.814A.93.93 0 0 1 9 5.883V6h-.879l.621.621-2.121 2.121L6 8.121V9H3v-.879l-.621.621-.277-.277c.004.045.002.09.007.135a5.887 5.887 0 0 0 2.148 3.994 5.919 5.919 0 0 0 4.733 1.252 3.787 3.787 0 0 1 .451-4.073 3.756 3.756 0 0 1 4.439-1.056 5.948 5.948 0 0 0-2.128-5.304zm-4.98 7.442c-.499.039-1.067-.26-1.156-.732-.123-.642.743-1.152 1.312-1.123.811.042.938.917.966 1.564.03.682-.977.879-1.122.291z" id="iconFg"/><path class="icon-vs-bg" d="M5.616 10.123C5.493 9.481 6.359 8.971 6.928 9c.811.042.938.917.966 1.564.03.683-.977.88-1.122.292-.499.038-1.066-.26-1.156-.733zm6.817-7.545A6.976 6.976 0 0 0 7.394 1.03L8.48 2.117a5.869 5.869 0 0 1 3.272 1.296 5.949 5.949 0 0 1 2.129 5.304 3.757 3.757 0 0 0-4.439 1.056 3.783 3.783 0 0 0-.451 4.073 5.922 5.922 0 0 1-4.733-1.252A5.885 5.885 0 0 1 2.109 8.6c-.005-.045-.003-.09-.007-.135L1.029 7.393a6.958 6.958 0 0 0 2.546 6.035 7 7 0 0 0 6.433 1.286l.776-.23-.512-.627a2.7 2.7 0 0 1 .004-3.403 2.687 2.687 0 0 1 3.676-.456l.648.478.195-.782a7.033 7.033 0 0 0-2.362-7.116zM9.622 5.574c.417-.453.561-1.501-.092-1.814-.164-.078-.347-.081-.53-.055v2.178a.93.93 0 0 0 .622-.309z" id="iconBg"/><g id="colorAction"><path class="icon-vs-action-orange" d="M8 4H5.707l1.621-1.621-.707-.708L5 3.293V1H4v2.293L2.379 1.671l-.708.708L3.293 4H1v1h2.293L1.671 6.621l.708.707L4 5.707V8h1V5.707l1.621 1.621.707-.707L5.707 5H8V4zM5 5H4V4h1v1z"/></g></svg>